<?xml version="1.0" encoding="UTF-8" standalone="no" ?>
<!DOCTYPE svg PUBLIC "-//W3C//DTD SVG 1.1//EN" "http://www.w3.org/Graphics/SVG/1.1/DTD/svg11.dtd">
<svg xmlns="http://www.w3.org/2000/svg" xmlns:xlink="http://www.w3.org/1999/xlink" version="1.1" width="1280" height="1024" viewBox="0 0 1280 1024" xml:space="preserve">
<desc>Created with Fabric.js 5.3.0</desc>
<defs>
</defs>
<g transform="matrix(1 0 0 1 640 512)" id="background-logo"  >
<rect style="stroke: none; stroke-width: 0; stroke-dasharray: none; stroke-linecap: butt; stroke-dashoffset: 0; stroke-linejoin: miter; stroke-miterlimit: 4; fill: rgb(241,249,245); fill-rule: nonzero; opacity: 1;"  paint-order="stroke"  x="-640" y="-512" rx="0" ry="0" width="1280" height="1024" />
</g>
<g transform="matrix(1.9211538461538462 0 0 1.9211538461538462 640 395.1857743886224)" id="logo-logo"  >
<g style=""  paint-order="stroke"   >
		<g transform="matrix(0.19730870761516964 0 0 -0.1973087076151697 3.866235041756397 -36.60579316033389)"  >
<path style="stroke: none; stroke-width: 1; stroke-dasharray: none; stroke-linecap: butt; stroke-dashoffset: 0; stroke-linejoin: miter; stroke-miterlimit: 4; fill: rgb(85,154,156); fill-rule: nonzero; opacity: 1;"  paint-order="stroke"  transform=" translate(-989.3535, -651.8965000000001)" d="M 989.355 573.563 C 946.0740000000001 573.563 911.047 608.645 911.047 651.891 C 911.047 695.18 946.0740000000001 730.23 989.355 730.23 C 1032.6200000000001 730.23 1067.66 695.1800000000001 1067.66 651.8910000000001 C 1067.66 608.6450000000001 1032.6200000000001 573.5630000000001 989.355 573.5630000000001" stroke-linecap="round" />
</g>
		<g transform="matrix(0.19730870761516964 0 0 -0.1973087076151697 -29.22490158415286 -52.019352090523284)"  >
<path style="stroke: none; stroke-width: 1; stroke-dasharray: none; stroke-linecap: butt; stroke-dashoffset: 0; stroke-linejoin: miter; stroke-miterlimit: 4; fill: rgb(61,125,183); fill-rule: nonzero; opacity: 1;"  paint-order="stroke"  transform=" translate(-821.641, -730.0155)" d="M 821.727 730.23 C 821.688 730.082 821.621 729.938 821.555 729.801 C 821.555 729.801 821.5659999999999 729.855 821.5659999999999 729.883 C 821.637 729.988 821.6759999999999 730.105 821.7269999999999 730.23" stroke-linecap="round" />
</g>
		<g transform="matrix(0.19730870761516964 0 0 -0.1973087076151697 -4.084595195617169 -57.076180432316704)"  >
<path style="stroke: none; stroke-width: 1; stroke-dasharray: none; stroke-linecap: butt; stroke-dashoffset: 0; stroke-linejoin: miter; stroke-miterlimit: 4; fill: rgb(61,125,183); fill-rule: nonzero; opacity: 1;"  paint-order="stroke"  transform=" translate(-949.0571018659608, -755.6445176085701)" d="M 747.059 789.742 C 777.1949999999999 877.805 843.355 930.02 941.477 932.66 C 1078.06 936.3439999999999 1156.3 814.9019999999999 1167.01 779.3589999999999 C 1158.47 805.43 1077.48 861.1949999999999 983.7339999999999 865.039 C 870.406 869.691 731.4259999999999 773.43 754.8789999999999 578.547 C 721.5779999999999 651.195 727.406 732.297 747.0589999999999 789.742" stroke-linecap="round" />
</g>
		<g transform="matrix(0.19730870761516964 0 0 -0.1973087076151697 24.122802308796224 59.291664730097835)"  >
<path style="stroke: none; stroke-width: 1; stroke-dasharray: none; stroke-linecap: butt; stroke-dashoffset: 0; stroke-linejoin: miter; stroke-miterlimit: 4; fill: rgb(85,154,156); fill-rule: nonzero; opacity: 1;"  paint-order="stroke"  transform=" translate(-1092.017835050778, -165.869)" d="M 1005.57 265.527 C 1180.31 117.551 1161 25.5078 1150.45 0 C 1204.66 108.281 1177.94 224.766 1089.81 331.738 C 1076.21 319.855 1061.74 308.223 1046.36 296.93399999999997 C 1032 286.39799999999997 1018.4399999999999 275.92999999999995 1005.5699999999999 265.527" stroke-linecap="round" />
</g>
		<g transform="matrix(0.19730870761516964 0 0 -0.1973087076151697 -18.447962074881843 -21.217983016488205)"  >
<path style="stroke: none; stroke-width: 1; stroke-dasharray: none; stroke-linecap: butt; stroke-dashoffset: 0; stroke-linejoin: miter; stroke-miterlimit: 4; fill: rgb(85,154,156); fill-rule: nonzero; opacity: 1;"  paint-order="stroke"  transform=" translate(-876.2606852613833, -573.908)" d="M 885.137 363.074 C 922.0899999999999 398.645 956.6719999999999 429.16 974.223 444.59000000000003 C 751.141 656.879 851.57 784.742 851.57 784.742 C 737.844 692.527 762.242 479.895 885.137 363.074" stroke-linecap="round" />
</g>
		<g transform="matrix(0.19730870761516964 0 0 -0.1973087076151697 6.178535445060049 16.82090987353152)"  >
<path style="stroke: none; stroke-width: 1; stroke-dasharray: none; stroke-linecap: butt; stroke-dashoffset: 0; stroke-linejoin: miter; stroke-miterlimit: 4; fill: rgb(61,125,183); fill-rule: nonzero; opacity: 1;"  paint-order="stroke"  transform=" translate(-1001.0727009985366, -381.11928149999994)" d="M 1034.19 313.516 C 1010.2700000000001 295.957 989.07 279.063 970.25 262.84400000000005 L 970.25 262.85900000000004 C 796.461 115.684 811.031 26.4844 821.566 0.398438 L 821.566 0.351563 C 767.656 108.43 794.297 224.648 882.117 331.426 C 882.211 331.52299999999997 882.309 331.609 882.414 331.719 C 937.2189999999999 385.84 992.074 432.605 999.145 439.15999999999997 C 1230.8899999999999 653.691 1104.93 761.887 1104.93 761.887 C 1294.23 618.4219999999999 1195.69 432.1019999999999 1034.19 313.51599999999996" stroke-linecap="round" />
</g>
</g>
</g>
<g transform="matrix(1.9211538461538462 0 0 1.9211538461538462 640.929358173077 671.6816359411423)" id="text-logo"  >
<g style=""  paint-order="stroke"   >
		<g transform="matrix(1 0 0 1 5.684342e-14 0)" id="text-logo-path-0"  >
<path style="stroke: none; stroke-width: 0; stroke-dasharray: none; stroke-linecap: butt; stroke-dashoffset: 0; stroke-linejoin: miter; stroke-miterlimit: 4; fill: rgb(61,125,183); fill-rule: nonzero; opacity: 1;"  paint-order="stroke"  transform=" translate(-278.425, 15.05)" d="M 1.72 -30.1 L 1.72 0 L 6.45 0 L 6.45 -17.8 L 12.04 0 L 14.62 0 L 20.21 -19.57 L 20.21 0 L 24.94 0 L 24.94 -30.1 L 18.49 -30.1 L 13.16 -11.44 L 7.31 -30.1 Z M 42.57 -30.1 L 37.41 0 L 42.14 0 L 42.66 -3.01 L 49.06 -3.01 L 49.58 0 L 54.31 0 L 49.15 -30.1 Z M 43.47 -7.74 L 45.88 -21.72 L 48.25 -7.74 Z M 75.81 -30.1 L 67.34 -30.1 L 67.34 0 L 75.81 0 C 80.88 0 84.24 -3.53 84.24 -8.43 L 84.24 -21.67 C 84.24 -26.57 80.88 -30.1 75.81 -30.1 Z M 75.81 -4.73 L 72.07 -4.73 L 72.07 -25.37 L 75.81 -25.37 C 78.52 -25.37 79.51 -24.34 79.51 -21.67 L 79.51 -8.43 C 79.51 -5.76 78.52 -4.73 75.81 -4.73 Z M 97.95 -30.1 L 97.95 0 L 102.68 0 L 102.68 -30.1 Z M 124.4 -30.1 L 116.44 -30.1 L 116.44 0 L 124.36 0 C 129.95 0 133.34 -3.7 133.34 -8.99 C 133.34 -11.87 132.35 -14.19 130.68 -15.74 C 132.05 -17.2 132.83 -19.22 132.83 -21.67 C 132.83 -26.62 129.52 -30.1 124.4 -30.1 Z M 124.36 -4.73 L 121.17 -4.73 L 121.17 -13.24 L 124.36 -13.24 C 127.45 -13.24 128.61 -12.17 128.61 -8.99 C 128.61 -5.89 127.54 -4.73 124.36 -4.73 Z M 124.4 -17.97 L 121.17 -17.97 L 121.17 -25.37 L 124.4 -25.37 C 127.15 -25.37 128.1 -24.38 128.1 -21.67 C 128.1 -18.92 127.11 -17.97 124.4 -17.97 Z M 149.38 -30.1 L 144.22 0 L 148.95 0 L 149.47 -3.01 L 155.88 -3.01 L 156.39 0 L 161.12 0 L 155.96 -30.1 Z M 150.28 -7.74 L 152.69 -21.72 L 155.06 -7.74 Z M 193.5 -30.1 L 193.5 0 L 198.23 0 L 198.23 -13.12 L 205.67 -13.12 L 205.67 0 L 210.4 0 L 210.4 -30.1 L 205.67 -30.1 L 205.67 -17.85 L 198.23 -17.85 L 198.23 -30.1 Z M 224.16 -30.1 L 224.16 0 L 238.35 0 L 238.35 -4.73 L 228.89 -4.73 L 228.89 -13.12 L 237.49 -13.12 L 237.49 -17.85 L 228.89 -17.85 L 228.89 -25.37 L 238.35 -25.37 L 238.35 -30.1 Z M 255.76 -30.1 L 250.6 0 L 255.33 0 L 255.85 -3.01 L 262.26 -3.01 L 262.77 0 L 267.5 0 L 262.34 -30.1 Z M 256.67 -7.74 L 259.07 -21.72 L 261.44 -7.74 Z M 280.53 -30.1 L 280.53 0 L 294.72 0 L 294.72 -4.73 L 285.26 -4.73 L 285.26 -30.1 Z M 318.63 -30.1 L 301.86 -30.1 L 301.86 -25.37 L 307.88 -25.37 L 307.88 0 L 312.61 0 L 312.61 -25.37 L 318.63 -25.37 Z M 331.06 -30.1 L 331.06 0 L 335.79 0 L 335.79 -13.12 L 343.23 -13.12 L 343.23 0 L 347.96 0 L 347.96 -30.1 L 343.23 -30.1 L 343.23 -17.85 L 335.79 -17.85 L 335.79 -30.1 Z M 361.2 -22.1 L 361.2 -8 C 361.2 -3.1 364.55 0.43 369.67 0.43 C 374.57 0.43 378.1 -2.92 378.1 -8 L 378.1 -10.15 L 373.37 -10.15 L 373.37 -8 C 373.37 -5.29 372.34 -4.3 369.67 -4.3 C 366.92 -4.3 365.93 -5.33 365.93 -8 L 365.93 -22.1 C 365.93 -24.85 366.96 -25.8 369.67 -25.8 C 372.38 -25.8 373.37 -24.77 373.37 -22.1 L 373.37 -19.95 L 378.1 -19.95 L 378.1 -22.1 C 378.1 -27 374.74 -30.53 369.67 -30.53 C 364.77 -30.53 361.2 -27.26 361.2 -22.1 Z M 391.04 -22.1 L 391.04 -8 C 391.04 -3.1 394.4 0.43 399.51 0.43 C 404.41 0.43 407.94 -2.92 407.94 -8 L 407.94 -22.1 C 407.94 -27 404.59 -30.53 399.51 -30.53 C 394.61 -30.53 391.04 -27.26 391.04 -22.1 Z M 395.77 -8 L 395.77 -22.1 C 395.77 -24.85 396.8 -25.8 399.51 -25.8 C 402.22 -25.8 403.21 -24.77 403.21 -22.1 L 403.21 -8 C 403.21 -5.29 402.18 -4.3 399.51 -4.3 C 396.76 -4.3 395.77 -5.33 395.77 -8 Z M 421.18 -30.1 L 421.18 0 L 425.91 0 L 425.91 -17.8 L 433.35 0 L 438.08 0 L 438.08 -30.1 L 433.35 -30.1 L 433.35 -11.31 L 425.48 -30.1 Z M 452.14 -30.1 L 452.14 0 L 456.87 0 L 456.87 -17.8 L 464.31 0 L 469.04 0 L 469.04 -30.1 L 464.31 -30.1 L 464.31 -11.31 L 456.44 -30.1 Z M 483.1 -30.1 L 483.1 0 L 497.29 0 L 497.29 -4.73 L 487.83 -4.73 L 487.83 -13.12 L 496.43 -13.12 L 496.43 -17.85 L 487.83 -17.85 L 487.83 -25.37 L 497.29 -25.37 L 497.29 -30.1 Z M 510.24 -22.1 L 510.24 -8 C 510.24 -3.1 513.59 0.43 518.71 0.43 C 523.61 0.43 527.14 -2.92 527.14 -8 L 527.14 -10.15 L 522.41 -10.15 L 522.41 -8 C 522.41 -5.29 521.37 -4.3 518.71 -4.3 C 515.96 -4.3 514.97 -5.33 514.97 -8 L 514.97 -22.1 C 514.97 -24.85 516 -25.8 518.71 -25.8 C 521.42 -25.8 522.41 -24.77 522.41 -22.1 L 522.41 -19.95 L 527.14 -19.95 L 527.14 -22.1 C 527.14 -27 523.78 -30.53 518.71 -30.53 C 513.81 -30.53 510.24 -27.26 510.24 -22.1 Z M 555.13 -30.1 L 538.36 -30.1 L 538.36 -25.37 L 544.38 -25.37 L 544.38 0 L 549.11 0 L 549.11 -25.37 L 555.13 -25.37 Z" stroke-linecap="round" />
</g>
</g>
</g>
</svg>